PathFileType	4	(X/Y/Z)	/Users/itak/Documents/Research/Walk-IL/dataset/trc/00544_00009.trc
DataRate	CameraRate	NumFrames	NumMarkers	Units	OrigDataRate	OrigDataStartFrame	OrigNumFrames
100.000000	100.000000	4	53	mm	100.000000	205	547
Frame#	Time	RPSI			LPSI			L3			STRN			T10			C7			CLAV			RBAK			LBAK			LSHO			LUPA			LAEL			LAOL			LWTS			LWPS			LFRA			LIFD			LHPS			LHTS			RSHO			RUPA			RAEL			RAOL			RWTS			RWPS			RFRA			RIFD			RHTS			RHPS			RBHD			LFHD			RFHD			LBHD			LHIP			RHIP			RASI			LASI			LKNE			LTHI			LANK			LTIP			LTOE			LMT1			LMT5			LHEE			RKNE			RTHI			RANK			RTIP			RTOE			RMT1			RMT5			RHEE			
		X1	Y1	Z1	X2	Y2	Z2	X3	Y3	Z3	X4	Y4	Z4	X5	Y5	Z5	X6	Y6	Z6	X7	Y7	Z7	X8	Y8	Z8	X9	Y9	Z9	X10	Y10	Z10	X11	Y11	Z11	X12	Y12	Z12	X13	Y13	Z13	X14	Y14	Z14	X15	Y15	Z15	X16	Y16	Z16	X17	Y17	Z17	X18	Y18	Z18	X19	Y19	Z19	X20	Y20	Z20	X21	Y21	Z21	X22	Y22	Z22	X23	Y23	Z23	X24	Y24	Z24	X25	Y25	Z25	X26	Y26	Z26	X27	Y27	Z27	X28	Y28	Z28	X29	Y29	Z29	X30	Y30	Z30	X31	Y31	Z31	X32	Y32	Z32	X33	Y33	Z33	X34	Y34	Z34	X35	Y35	Z35	X36	Y36	Z36	X37	Y37	Z37	X38	Y38	Z38	X39	Y39	Z39	X40	Y40	Z40	X41	Y41	Z41	X42	Y42	Z42	X43	Y43	Z43	X44	Y44	Z44	X45	Y45	Z45	X46	Y46	Z46	X47	Y47	Z47	X48	Y48	Z48	X49	Y49	Z49	X50	Y50	Z50	X51	Y51	Z51	X52	Y52	Z52	X53	Y53	Z53	

206	2.05	-377.7923889160156	1010.845642089844	214.3261260986328	-374.9692993164062	1008.176879882812	80.80640411376953	-369.3440551757812	1112.961181640625	142.0119171142578	-124.4410171508789	1285.376708984375	141.4701538085938	-370.8644714355469	1237.943969726562	141.5020751953125	-303.7513732910156	1507.049072265625	165.6069946289062	-135.3257141113281	1397.188110351562	147.4644470214844	-381.7698364257812	1384.326049804688	248.3215026855469	-342.0807495117188	1460.910766601562	71.35687255859375	-241.2878570556641	1484.7060546875	-8.411066055297852	-263.0590209960938	1366.361206054688	-98.32711791992188	-271.7470703125	1146.517822265625	-134.014404296875	-360.5480041503906	1146.420532226562	-84.60727691650391	-199.1557922363281	895.8231201171875	-97.00609588623047	-244.6948699951172	878.9542846679688	-170.2469940185547	-256.5461730957031	1059.307983398438	-145.228271484375	-210.5541229248047	727.059326171875	-109.2602844238281	-237.8394317626953	819.0543212890625	-165.0740661621094	-186.2660675048828	819.2040405273438	-120.3045272827148	-243.6216278076172	1459.866943359375	317.0396728515625	-262.9439086914062	1396.623046875	384.96142578125	-268.5303955078125	1108.04345703125	435.3243103027344	-323.4776611328125	1089.596923828125	410.5134582519531	-130.1909790039062	891.4505615234375	392.6465759277344	-171.5098876953125	870.375	460.410400390625	-255.8735046386719	1052.860595703125	442.8629760742188	-108.6603546142578	720.1412963867188	399.8245849609375	-96.35174560546875	802.9080200195312	408.6558532714844	-151.6986541748047	796.1599731445312	458.0014038085938	-216.1597900390625	1673.914916992188	238.7630767822266	-63.25397491455078	1696.7607421875	99.54195404052734	-76.68819427490234	1688.90771484375	243.1361236572266	-193.8661956787109	1680.646850585938	74.38431549072266	-246.0239715576172	930.6897583007812	-48.61791610717773	-249.7318725585938	943.5214233398438	336.4625549316406	-165.0105285644531	973.80517578125	276.7225341796875	-168.3896026611328	958.2184448242188	1.245059490203857	-141.7878875732422	488.2009582519531	-36.04077911376953	-170.6369018554688	659.2777099609375	-51.03867721557617	-532.9540405273438	190.627685546875	-35.23569869995117	-352.364501953125	339.0697631835938	-41.69233322143555	-380.02783203125	52.37939453125	12.4711742401123	-429.2187194824219	100.2459716796875	50.70121765136719	-454.2203979492188	102.7156829833984	-51.95680618286133	-570.9962158203125	244.1750640869141	18.81395721435547	-170.9754028320312	502.6991882324219	267.4921875	-194.0171508789062	791.240234375	327.3290405273438	-260.0501098632812	36.18403625488281	230.9297637939453	-168.7546691894531	357.4407653808594	246.6697235107422	-40.4295539855957	41.68947219848633	188.8599395751953	-102.8867340087891	41.95222854614258	147.9527282714844	-128.2376251220703	38.39585113525391	251.4534454345703	-314.02392578125	30.92881393432617	175.0260314941406	
207	2.06	-372.1917724609375	1011.318603515625	214.4992980957031	-369.0668029785156	1008.78515625	81.00626373291016	-363.4913330078125	1113.747314453125	142.9153137207031	-118.3526763916016	1285.9658203125	141.8358001708984	-364.9154968261719	1238.724365234375	142.81298828125	-297.2049560546875	1507.690063476562	167.0657043457031	-129.0593719482422	1397.71240234375	147.7530059814453	-375.0824279785156	1385.149169921875	250.0766754150391	-336.1378173828125	1461.664672851562	73.07707977294922	-235.8990936279297	1485.484497070312	-7.340020179748535	-259.0032348632812	1367.49951171875	-97.30937957763672	-269.4155883789062	1147.92431640625	-133.6545104980469	-357.4747924804688	1148.048950195312	-83.00215148925781	-197.0328521728516	896.9874877929688	-98.40386962890625	-243.6788024902344	880.35595703125	-171.0419158935547	-254.6272125244141	1060.75927734375	-145.3502502441406	-208.7491760253906	728.3221435546875	-111.095817565918	-236.8585968017578	820.5545654296875	-166.1497497558594	-184.5128173828125	820.4893798828125	-122.2104568481445	-236.3081359863281	1460.265625	318.0081787109375	-254.9747161865234	1397.061645507812	386.1260986328125	-258.1378173828125	1108.368774414062	436.533447265625	-313.2239074707031	1089.697998046875	412.4137268066406	-119.8706665039062	891.9608764648438	392.79736328125	-160.2700958251953	870.9793701171875	460.9742736816406	-245.2954406738281	1053.259399414062	444.2540893554688	-97.98773956298828	720.6550903320312	399.9308471679688	-85.58934783935547	803.4730224609375	408.5535583496094	-140.5029907226562	796.8795776367188	458.5060729980469	-209.1711883544922	1674.4501953125	239.5821228027344	-56.46501541137695	1696.980590820312	100.1013412475586	-69.66884613037109	1689.130493164062	243.6868743896484	-187.1100158691406	1681.144897460938	75.12879180908203	-239.1813507080078	931.8822021484375	-48.06331253051758	-244.8624114990234	943.5496826171875	337.1378784179688	-159.7127838134766	974.0617065429688	278.0530700683594	-162.1199645996094	959.4088134765625	2.588038206100464	-127.6541213989258	491.0225524902344	-34.90086364746094	-159.3790740966797	661.5784912109375	-50.56668472290039	-513.3491821289062	186.7974700927734	-34.96609115600586	-336.2462768554688	338.7831420898438	-40.66557312011719	-355.2254333496094	53.30843353271484	8.557353973388672	-405.7222900390625	98.30297088623047	48.19778442382812	-431.5068054199219	102.3889083862305	-54.31012725830078	-552.9097290039062	237.8458557128906	20.61129188537598	-169.4648132324219	502.2838745117188	268.0048522949219	-190.0804595947266	791.0194091796875	328.0819091796875	-260.0952453613281	36.19393539428711	230.9093627929688	-167.8677978515625	357.1195068359375	247.0007019042969	-40.47586441040039	41.6800422668457	188.9007873535156	-102.9057312011719	41.92882919311523	147.9597015380859	-128.2655792236328	38.37659072875977	251.4753265380859	-313.9626159667969	30.88245582580566	174.8573760986328	
208	2.07	-366.5876770019531	1011.762512207031	214.6021881103516	-363.1629638671875	1009.380676269531	81.13169860839844	-357.6506042480469	1114.442993164062	143.7343902587891	-112.2644805908203	1286.509765625	142.1853179931641	-358.9891662597656	1239.443969726562	144.0462799072266	-290.686279296875	1508.26806640625	168.4869537353516	-122.8120422363281	1398.189208984375	148.0342254638672	-368.3929443359375	1385.882934570312	251.7582550048828	-330.2109069824219	1462.365478515625	74.75620269775391	-230.5223693847656	1486.206176757812	-6.278952598571777	-254.9212799072266	1368.584228515625	-96.29965972900391	-267.0099182128906	1149.283203125	-133.2469940185547	-354.3085632324219	1149.603759765625	-81.42235565185547	-194.8995056152344	898.0972290039062	-99.67116546630859	-242.5725708007812	881.7191772460938	-171.7275695800781	-252.6225433349609	1062.167602539062	-145.400390625	-206.9556732177734	729.5324096679688	-112.796142578125	-235.8279266357422	822.0105590820312	-167.1182403564453	-182.722900390625	821.7223510742188	-123.992790222168	-229.0514526367188	1460.616088867188	318.9414672851562	-247.0595855712891	1397.459716796875	387.2643127441406	-247.7124633789062	1108.66552734375	437.6526794433594	-303.0386047363281	1089.766845703125	414.2123718261719	-109.5621032714844	892.4198608398438	392.8175964355469	-149.0732727050781	871.5285034179688	461.44140625	-234.6769104003906	1053.642211914062	445.5641784667969	-87.42249298095703	721.079833984375	399.9648742675781	-74.89528656005859	803.9541015625	408.3560791015625	-129.2586059570312	797.5630493164062	458.9923706054688	-202.1998901367188	1674.965698242188	240.3285369873047	-49.72552490234375	1697.1455078125	100.5716018676758	-62.67116165161133	1689.343627929688	244.1389770507812	-180.4070281982422	1681.575561523438	75.80259704589844	-232.3767700195312	933.0361938476562	-47.54462432861328	-240.1156616210938	943.5155639648438	337.8049926757812	-154.4421234130859	974.2383422851562	279.337646484375	-155.8289489746094	960.5304565429688	3.844912767410278	-113.7765502929688	493.8803405761719	-33.59406280517578	-148.3184661865234	663.8556518554688	-50.0263671875	-493.0894165039062	181.9062652587891	-34.6579475402832	-319.973388671875	338.0187072753906	-39.58350372314453	-329.7872619628906	53.84629058837891	5.144282341003418	-381.4828186035156	95.96024322509766	45.91225814819336	-408.0979919433594	101.2930603027344	-56.37352752685547	-534.1962280273438	230.4518737792969	22.18696594238281	-167.9566650390625	501.8625793457031	268.5195617675781	-186.1878356933594	790.7572631835938	328.8191528320312	-260.138427734375	36.20278930664062	230.8911895751953	-166.9809417724609	356.794921875	247.3247985839844	-40.52801513671875	41.67065811157227	188.9487762451172	-102.9289016723633	41.90517044067383	147.9720001220703	-128.2924041748047	38.35650634765625	251.5016632080078	-313.9133911132812	30.84075736999512	174.7038421630859	
209	2.08	-360.9748840332031	1012.173217773438	214.6597137451172	-357.2718200683594	1009.94580078125	81.20543670654297	-351.8257141113281	1115.043823242188	144.4796600341797	-106.1690216064453	1286.994506835938	142.5193634033203	-353.0661926269531	1240.094848632812	145.2018890380859	-284.1847229003906	1508.775634765625	169.8717651367188	-116.5730361938477	1398.604370117188	148.3114318847656	-361.6902160644531	1386.514038085938	253.3707275390625	-324.291015625	1463.005859375	76.39290618896484	-225.1416778564453	1486.858764648438	-5.22758960723877	-250.7879333496094	1369.59765625	-95.29877471923828	-264.5066528320312	1150.584594726562	-132.7962188720703	-351.0417785644531	1151.06787109375	-79.8621826171875	-192.7399444580078	899.1322021484375	-100.8054962158203	-241.3661956787109	883.0262451171875	-172.302001953125	-250.5149230957031	1063.505737304688	-145.3774108886719	-205.1804351806641	730.6654052734375	-114.3465194702148	-234.7260437011719	823.39013671875	-167.9771881103516	-180.8897705078125	822.8692016601562	-125.6349258422852	-221.8385467529297	1460.905151367188	319.8439025878906	-239.2000732421875	1397.7958984375	388.3733825683594	-237.2828826904297	1108.918090820312	438.6874694824219	-292.9290466308594	1089.7890625	415.9093322753906	-99.27197265625	892.8336791992188	392.7122802734375	-137.9227294921875	872.0239868164062	461.8104248046875	-224.0533294677734	1053.988037109375	446.7730407714844	-76.93267059326172	721.4400024414062	399.9204711914062	-64.27130126953125	804.373046875	408.0519104003906	-117.9652328491211	798.2100219726562	459.4486694335938	-195.2446594238281	1675.45166015625	241.0072021484375	-43.03084564208984	1697.253784179688	100.9588470458984	-55.69346237182617	1689.547729492188	244.5033416748047	-173.7546234130859	1681.927612304688	76.41343688964844	-225.6407012939453	934.127685546875	-47.06727600097656	-235.4331207275391	943.4328002929688	338.4505004882812	-149.1780395507812	974.3270874023438	280.5521240234375	-149.5181732177734	961.5702514648438	4.983637809753418	-100.1585159301758	496.7523193359375	-32.13244247436523	-137.4844055175781	666.08544921875	-49.40838623046875	-472.1859130859375	176.0718688964844	-34.2845458984375	-303.5214233398438	336.7880859375	-38.46723175048828	-303.7670288085938	54.05467987060547	2.207593202590942	-356.5672607421875	93.27264404296875	43.87295913696289	-384.0447692871094	99.5184326171875	-58.14594650268555	-514.835693359375	222.1227722167969	23.57021713256836	-166.4262237548828	501.4342346191406	269.0267333984375	-182.3068389892578	790.4547119140625	329.5207824707031	-260.1808776855469	36.21252059936523	230.8770294189453	-166.0813598632812	356.4642333984375	247.6344604492188	-40.58257675170898	41.66166305541992	189.0008544921875	-102.9548568725586	41.88098526000977	147.988037109375	-128.3163299560547	38.33745574951172	251.5282287597656	-313.8998107910156	30.81537628173828	174.588623046875	
